<?xml version="1.0" encoding="UTF-8"?>
<!DOCTYPE svg PUBLIC "-//W3C//DTD SVG 1.1//EN" "http://www.w3.org/Graphics/SVG/1.1/DTD/svg11.dtd">
<svg xmlns="http://www.w3.org/2000/svg" version="1.1" width="500px" height="500px" style="shape-rendering:geometricPrecision; text-rendering:geometricPrecision; image-rendering:optimizeQuality; fill-rule:evenodd; clip-rule:evenodd" xmlns:xlink="http://www.w3.org/1999/xlink">
<g><path style="opacity:0.986" fill="#64bce8" d="M 209.5,38.5 C 209.824,66.2407 209.491,93.9073 208.5,121.5C 186.854,131.657 165.52,142.323 144.5,153.5C 143.171,125.997 143.171,98.3304 144.5,70.5C 166.347,60.076 188.014,49.4093 209.5,38.5 Z"/></g>
<g><path style="opacity:0.987" fill="#00a9de" d="M 209.5,38.5 C 231.848,49.4241 254.014,60.7574 276,72.5C 276.075,99.9987 275.575,127.332 274.5,154.5C 253.148,142.491 231.148,131.491 208.5,121.5C 209.491,93.9073 209.824,66.2407 209.5,38.5 Z"/></g>
<g><path style="opacity:0.981" fill="#01b8b2" d="M 436.5,155.5 C 414.473,144.487 392.473,133.487 370.5,122.5C 370.5,95.1667 370.5,67.8333 370.5,40.5C 370.56,39.9569 370.893,39.6236 371.5,39.5C 393.098,51.216 414.931,62.5494 437,73.5C 437.83,101.003 437.664,128.336 436.5,155.5 Z"/></g>
<g><path style="opacity:0.982" fill="#69c7c4" d="M 369.5,41.5 C 369.484,68.8057 369.484,95.8057 369.5,122.5C 348.026,133.403 326.359,144.07 304.5,154.5C 304.333,127.498 304.5,100.498 305,73.5C 326.043,61.895 347.543,51.2283 369.5,41.5 Z"/></g>
<g><path style="opacity:1" fill="#79c9c6" d="M 370.5,40.5 C 370.5,67.8333 370.5,95.1667 370.5,122.5C 370.167,122.5 369.833,122.5 369.5,122.5C 369.484,95.8057 369.484,68.8057 369.5,41.5C 369.5,40.8333 369.833,40.5 370.5,40.5 Z"/></g>
<g><path style="opacity:0.983" fill="#0990bd" d="M 208.5,121.5 C 231.148,131.491 253.148,142.491 274.5,154.5C 253.043,165.395 231.376,176.061 209.5,186.5C 187.341,176.255 165.675,165.255 144.5,153.5C 165.52,142.323 186.854,131.657 208.5,121.5 Z"/></g>
<g><path style="opacity:0.983" fill="#1b9995" d="M 369.5,122.5 C 369.833,122.5 370.167,122.5 370.5,122.5C 392.473,133.487 414.473,144.487 436.5,155.5C 414.779,166.864 392.779,177.864 370.5,188.5C 348.125,177.648 326.125,166.314 304.5,154.5C 326.359,144.07 348.026,133.403 369.5,122.5 Z"/></g>
<g><path style="opacity:0.983" fill="#604ea0" d="M 128.5,175.5 C 150.669,185.834 172.502,196.834 194,208.5C 194.83,236.003 194.664,263.336 193.5,290.5C 171.584,279.709 149.917,268.709 128.5,257.5C 128.5,230.167 128.5,202.833 128.5,175.5 Z"/></g>
<g><path style="opacity:0.983" fill="#8571b3" d="M 128.5,175.5 C 128.5,202.833 128.5,230.167 128.5,257.5C 106.246,268.461 83.9131,279.128 61.5,289.5C 61.1669,262.159 61.5002,234.825 62.5,207.5C 84.5219,196.822 106.522,186.155 128.5,175.5 Z"/></g>
<g><path style="opacity:0.984" fill="#534385" d="M 128.5,257.5 C 149.917,268.709 171.584,279.709 193.5,290.5C 171.84,301.997 149.84,312.997 127.5,323.5C 105.125,312.648 83.1254,301.314 61.5,289.5C 83.9131,279.128 106.246,268.461 128.5,257.5 Z"/></g>
<g><path style="opacity:0.985" fill="#f6a564" d="M 369.5,311.5 C 369.5,339.167 369.5,366.833 369.5,394.5C 369.167,394.5 368.833,394.5 368.5,394.5C 368.667,373.831 368.5,353.164 368,332.5C 367.827,353.073 367.327,373.573 366.5,394C 366.728,394.399 367.062,394.565 367.5,394.5C 346.449,405.692 325.115,416.359 303.5,426.5C 302.834,421.511 302.501,416.344 302.5,411C 303.131,388.837 303.631,366.67 304,344.5C 325.813,333.343 347.647,322.343 369.5,311.5 Z"/></g>
<g><path style="opacity:0.989" fill="#f18e68" d="M 207.5,312.5 C 207.5,339.833 207.5,367.167 207.5,394.5C 207.167,394.5 206.833,394.5 206.5,394.5C 206.484,367.806 206.484,340.806 206.5,313.5C 206.5,312.833 206.833,312.5 207.5,312.5 Z"/></g>
<g><path style="opacity:0.981" fill="#ee5a2e" d="M 207.5,312.5 C 229.803,323.068 251.97,334.068 274,345.5C 274.83,373.003 274.664,400.336 273.5,427.5C 251.473,416.487 229.473,405.487 207.5,394.5C 207.5,367.167 207.5,339.833 207.5,312.5 Z"/></g>
<g><path style="opacity:0.981" fill="#f18760" d="M 206.5,313.5 C 206.484,340.806 206.484,367.806 206.5,394.5C 185.135,405.515 163.802,416.515 142.5,427.5C 141.336,400.336 141.17,373.003 142,345.5C 163.043,333.895 184.543,323.228 206.5,313.5 Z"/></g>
<g><path style="opacity:0.987" fill="#f38633" d="M 369.5,311.5 C 390.984,322.742 412.651,333.742 434.5,344.5C 435.829,372.33 435.829,399.997 434.5,427.5C 413.02,416.26 391.354,405.26 369.5,394.5C 369.5,366.833 369.5,339.167 369.5,311.5 Z"/></g>
<g><path style="opacity:1" fill="#f6aa6b" d="M 368.5,394.5 C 368.167,394.5 367.833,394.5 367.5,394.5C 367.062,394.565 366.728,394.399 366.5,394C 367.327,373.573 367.827,353.073 368,332.5C 368.5,353.164 368.667,373.831 368.5,394.5 Z"/></g>
<g><path style="opacity:0.983" fill="#c64d26" d="M 206.5,394.5 C 206.833,394.5 207.167,394.5 207.5,394.5C 229.473,405.487 251.473,416.487 273.5,427.5C 251.734,439.133 229.567,450.133 207,460.5C 185.411,449.622 163.911,438.622 142.5,427.5C 163.802,416.515 185.135,405.515 206.5,394.5 Z"/></g>
<g><path style="opacity:0.983" fill="#cb742b" d="M 367.5,394.5 C 367.833,394.5 368.167,394.5 368.5,394.5C 368.833,394.5 369.167,394.5 369.5,394.5C 391.354,405.26 413.02,416.26 434.5,427.5C 412.84,438.997 390.84,449.997 368.5,460.5C 346.614,449.392 324.948,438.059 303.5,426.5C 325.115,416.359 346.449,405.692 367.5,394.5 Z"/></g>
</svg>
